<mxfile host="app.diagrams.net" modified="2021-08-29T09:02:00.231Z" agent="5.0 (Macintosh; Intel Mac OS X 10_15_7) AppleWebKit/537.36 (KHTML, like Gecko) Chrome/81.0.4044.138 Safari/537.36" etag="apLmZ1s6rgOUIuGGtqd8" version="14.9.3" type="github">
  <diagram id="YOp7EUod95WV0Nj0ZzQr" name="第 1 页">
    <mxGraphModel dx="946" dy="565" grid="1" gridSize="10" guides="1" tooltips="1" connect="1" arrows="1" fold="1" page="1" pageScale="1" pageWidth="1654" pageHeight="2336" math="0" shadow="0">
      <root>
        <mxCell id="0" />
        <mxCell id="1" parent="0" />
        <mxCell id="FEjov3_fEQZX0-ExVcWr-1" value="需求、沉淀文档、合作方统计" style="shape=table;startSize=30;container=1;collapsible=0;childLayout=tableLayout;fontStyle=1;align=center;pointerEvents=1;fontSize=13;" vertex="1" parent="1">
          <mxGeometry x="200" y="150" width="572" height="200" as="geometry" />
        </mxCell>
        <mxCell id="FEjov3_fEQZX0-ExVcWr-2" value="" style="shape=partialRectangle;html=1;whiteSpace=wrap;collapsible=0;dropTarget=0;pointerEvents=0;fillColor=none;top=0;left=0;bottom=0;right=0;points=[[0,0.5],[1,0.5]];portConstraint=eastwest;" vertex="1" parent="FEjov3_fEQZX0-ExVcWr-1">
          <mxGeometry y="30" width="572" height="40" as="geometry" />
        </mxCell>
        <mxCell id="FEjov3_fEQZX0-ExVcWr-34" value="&lt;font size=&quot;1&quot;&gt;&lt;b style=&quot;font-size: 16px&quot;&gt;系统&lt;/b&gt;&lt;/font&gt;" style="shape=partialRectangle;html=1;whiteSpace=wrap;connectable=0;fillColor=none;top=0;left=0;bottom=0;right=0;overflow=hidden;pointerEvents=1;" vertex="1" parent="FEjov3_fEQZX0-ExVcWr-2">
          <mxGeometry width="136" height="40" as="geometry" />
        </mxCell>
        <mxCell id="FEjov3_fEQZX0-ExVcWr-3" value="&lt;font size=&quot;1&quot;&gt;&lt;b style=&quot;font-size: 16px&quot;&gt;需求&lt;/b&gt;&lt;/font&gt;" style="shape=partialRectangle;html=1;whiteSpace=wrap;connectable=0;fillColor=none;top=0;left=0;bottom=0;right=0;overflow=hidden;pointerEvents=1;" vertex="1" parent="FEjov3_fEQZX0-ExVcWr-2">
          <mxGeometry x="136" width="136" height="40" as="geometry" />
        </mxCell>
        <mxCell id="FEjov3_fEQZX0-ExVcWr-5" value="&lt;font size=&quot;1&quot;&gt;&lt;b style=&quot;font-size: 16px&quot;&gt;合作团队&lt;/b&gt;&lt;/font&gt;" style="shape=partialRectangle;html=1;whiteSpace=wrap;connectable=0;fillColor=none;top=0;left=0;bottom=0;right=0;overflow=hidden;pointerEvents=1;" vertex="1" parent="FEjov3_fEQZX0-ExVcWr-2">
          <mxGeometry x="272" width="138" height="40" as="geometry" />
        </mxCell>
        <mxCell id="FEjov3_fEQZX0-ExVcWr-81" value="&lt;font style=&quot;font-size: 16px&quot;&gt;&lt;b&gt;合作方&lt;/b&gt;&lt;/font&gt;" style="shape=partialRectangle;html=1;whiteSpace=wrap;connectable=0;fillColor=none;top=0;left=0;bottom=0;right=0;overflow=hidden;pointerEvents=1;" vertex="1" parent="FEjov3_fEQZX0-ExVcWr-2">
          <mxGeometry x="410" width="162" height="40" as="geometry" />
        </mxCell>
        <mxCell id="FEjov3_fEQZX0-ExVcWr-28" value="" style="shape=partialRectangle;html=1;whiteSpace=wrap;collapsible=0;dropTarget=0;pointerEvents=0;fillColor=none;top=0;left=0;bottom=0;right=0;points=[[0,0.5],[1,0.5]];portConstraint=eastwest;" vertex="1" parent="FEjov3_fEQZX0-ExVcWr-1">
          <mxGeometry y="70" width="572" height="37" as="geometry" />
        </mxCell>
        <mxCell id="FEjov3_fEQZX0-ExVcWr-35" value="&lt;font style=&quot;font-size: 14px&quot;&gt;发布端&lt;/font&gt;" style="shape=partialRectangle;html=1;whiteSpace=wrap;connectable=0;fillColor=none;top=0;left=0;bottom=0;right=0;overflow=hidden;pointerEvents=1;" vertex="1" parent="FEjov3_fEQZX0-ExVcWr-28">
          <mxGeometry width="136" height="37" as="geometry" />
        </mxCell>
        <mxCell id="FEjov3_fEQZX0-ExVcWr-29" value="&lt;font style=&quot;font-size: 15px&quot;&gt;12&lt;/font&gt;" style="shape=partialRectangle;html=1;whiteSpace=wrap;connectable=0;fillColor=none;top=0;left=0;bottom=0;right=0;overflow=hidden;pointerEvents=1;" vertex="1" parent="FEjov3_fEQZX0-ExVcWr-28">
          <mxGeometry x="136" width="136" height="37" as="geometry" />
        </mxCell>
        <mxCell id="FEjov3_fEQZX0-ExVcWr-31" value="&lt;font style=&quot;font-size: 14px&quot;&gt;线路、门票、酒店、商品平台&lt;/font&gt;" style="shape=partialRectangle;html=1;whiteSpace=wrap;connectable=0;fillColor=none;top=0;left=0;bottom=0;right=0;overflow=hidden;pointerEvents=1;" vertex="1" parent="FEjov3_fEQZX0-ExVcWr-28">
          <mxGeometry x="272" width="138" height="37" as="geometry" />
        </mxCell>
        <mxCell id="FEjov3_fEQZX0-ExVcWr-82" value="&lt;font style=&quot;font-size: 14px&quot;&gt;乐萤、苍羿、汐云、明和&lt;/font&gt;" style="shape=partialRectangle;html=1;whiteSpace=wrap;connectable=0;fillColor=none;top=0;left=0;bottom=0;right=0;overflow=hidden;pointerEvents=1;" vertex="1" parent="FEjov3_fEQZX0-ExVcWr-28">
          <mxGeometry x="410" width="162" height="37" as="geometry" />
        </mxCell>
        <mxCell id="FEjov3_fEQZX0-ExVcWr-66" style="shape=partialRectangle;html=1;whiteSpace=wrap;collapsible=0;dropTarget=0;pointerEvents=0;fillColor=none;top=0;left=0;bottom=0;right=0;points=[[0,0.5],[1,0.5]];portConstraint=eastwest;" vertex="1" parent="FEjov3_fEQZX0-ExVcWr-1">
          <mxGeometry y="107" width="572" height="33" as="geometry" />
        </mxCell>
        <mxCell id="FEjov3_fEQZX0-ExVcWr-67" value="&lt;font style=&quot;font-size: 14px&quot;&gt;度假管理后台&lt;/font&gt;" style="shape=partialRectangle;html=1;whiteSpace=wrap;connectable=0;fillColor=none;top=0;left=0;bottom=0;right=0;overflow=hidden;pointerEvents=1;" vertex="1" parent="FEjov3_fEQZX0-ExVcWr-66">
          <mxGeometry width="136" height="33" as="geometry" />
        </mxCell>
        <mxCell id="FEjov3_fEQZX0-ExVcWr-68" value="&lt;font style=&quot;font-size: 15px&quot;&gt;4&lt;/font&gt;" style="shape=partialRectangle;html=1;whiteSpace=wrap;connectable=0;fillColor=none;top=0;left=0;bottom=0;right=0;overflow=hidden;pointerEvents=1;" vertex="1" parent="FEjov3_fEQZX0-ExVcWr-66">
          <mxGeometry x="136" width="136" height="33" as="geometry" />
        </mxCell>
        <mxCell id="FEjov3_fEQZX0-ExVcWr-70" value="&lt;font style=&quot;font-size: 14px&quot;&gt;线路、门票&lt;/font&gt;" style="shape=partialRectangle;html=1;whiteSpace=wrap;connectable=0;fillColor=none;top=0;left=0;bottom=0;right=0;overflow=hidden;pointerEvents=1;" vertex="1" parent="FEjov3_fEQZX0-ExVcWr-66">
          <mxGeometry x="272" width="138" height="33" as="geometry" />
        </mxCell>
        <mxCell id="FEjov3_fEQZX0-ExVcWr-83" value="&lt;font style=&quot;font-size: 14px&quot;&gt;立清、苍羿、肃霜、伊橙&lt;/font&gt;" style="shape=partialRectangle;html=1;whiteSpace=wrap;connectable=0;fillColor=none;top=0;left=0;bottom=0;right=0;overflow=hidden;pointerEvents=1;" vertex="1" parent="FEjov3_fEQZX0-ExVcWr-66">
          <mxGeometry x="410" width="162" height="33" as="geometry" />
        </mxCell>
        <mxCell id="FEjov3_fEQZX0-ExVcWr-6" value="" style="shape=partialRectangle;html=1;whiteSpace=wrap;collapsible=0;dropTarget=0;pointerEvents=0;fillColor=none;top=0;left=0;bottom=0;right=0;points=[[0,0.5],[1,0.5]];portConstraint=eastwest;" vertex="1" parent="FEjov3_fEQZX0-ExVcWr-1">
          <mxGeometry y="140" width="572" height="30" as="geometry" />
        </mxCell>
        <mxCell id="FEjov3_fEQZX0-ExVcWr-36" value="&lt;font style=&quot;font-size: 14px&quot;&gt;景区ERP&lt;/font&gt;" style="shape=partialRectangle;html=1;whiteSpace=wrap;connectable=0;fillColor=none;top=0;left=0;bottom=0;right=0;overflow=hidden;pointerEvents=1;" vertex="1" parent="FEjov3_fEQZX0-ExVcWr-6">
          <mxGeometry width="136" height="30" as="geometry" />
        </mxCell>
        <mxCell id="FEjov3_fEQZX0-ExVcWr-7" value="&lt;font style=&quot;font-size: 14px&quot;&gt;2&lt;/font&gt;" style="shape=partialRectangle;html=1;whiteSpace=wrap;connectable=0;fillColor=none;top=0;left=0;bottom=0;right=0;overflow=hidden;pointerEvents=1;" vertex="1" parent="FEjov3_fEQZX0-ExVcWr-6">
          <mxGeometry x="136" width="136" height="30" as="geometry" />
        </mxCell>
        <mxCell id="FEjov3_fEQZX0-ExVcWr-9" value="&lt;font style=&quot;font-size: 14px&quot;&gt;自营平台&lt;/font&gt;" style="shape=partialRectangle;html=1;whiteSpace=wrap;connectable=0;fillColor=none;top=0;left=0;bottom=0;right=0;overflow=hidden;pointerEvents=1;" vertex="1" parent="FEjov3_fEQZX0-ExVcWr-6">
          <mxGeometry x="272" width="138" height="30" as="geometry" />
        </mxCell>
        <mxCell id="FEjov3_fEQZX0-ExVcWr-84" value="&lt;font style=&quot;font-size: 14px&quot;&gt;张来&lt;/font&gt;" style="shape=partialRectangle;html=1;whiteSpace=wrap;connectable=0;fillColor=none;top=0;left=0;bottom=0;right=0;overflow=hidden;pointerEvents=1;" vertex="1" parent="FEjov3_fEQZX0-ExVcWr-6">
          <mxGeometry x="410" width="162" height="30" as="geometry" />
        </mxCell>
        <mxCell id="FEjov3_fEQZX0-ExVcWr-71" style="shape=partialRectangle;html=1;whiteSpace=wrap;collapsible=0;dropTarget=0;pointerEvents=0;fillColor=none;top=0;left=0;bottom=0;right=0;points=[[0,0.5],[1,0.5]];portConstraint=eastwest;" vertex="1" parent="FEjov3_fEQZX0-ExVcWr-1">
          <mxGeometry y="170" width="572" height="30" as="geometry" />
        </mxCell>
        <mxCell id="FEjov3_fEQZX0-ExVcWr-72" value="&lt;font style=&quot;font-size: 14px&quot;&gt;邮轮标准库&lt;/font&gt;" style="shape=partialRectangle;html=1;whiteSpace=wrap;connectable=0;fillColor=none;top=0;left=0;bottom=0;right=0;overflow=hidden;pointerEvents=1;" vertex="1" parent="FEjov3_fEQZX0-ExVcWr-71">
          <mxGeometry width="136" height="30" as="geometry" />
        </mxCell>
        <mxCell id="FEjov3_fEQZX0-ExVcWr-73" value="&lt;font style=&quot;font-size: 14px&quot;&gt;1&lt;/font&gt;" style="shape=partialRectangle;html=1;whiteSpace=wrap;connectable=0;fillColor=none;top=0;left=0;bottom=0;right=0;overflow=hidden;pointerEvents=1;" vertex="1" parent="FEjov3_fEQZX0-ExVcWr-71">
          <mxGeometry x="136" width="136" height="30" as="geometry" />
        </mxCell>
        <mxCell id="FEjov3_fEQZX0-ExVcWr-75" value="&lt;font style=&quot;font-size: 14px&quot;&gt;商旅&lt;/font&gt;" style="shape=partialRectangle;html=1;whiteSpace=wrap;connectable=0;fillColor=none;top=0;left=0;bottom=0;right=0;overflow=hidden;pointerEvents=1;" vertex="1" parent="FEjov3_fEQZX0-ExVcWr-71">
          <mxGeometry x="272" width="138" height="30" as="geometry" />
        </mxCell>
        <mxCell id="FEjov3_fEQZX0-ExVcWr-85" value="&lt;font style=&quot;font-size: 14px&quot;&gt;仲问&lt;/font&gt;" style="shape=partialRectangle;html=1;whiteSpace=wrap;connectable=0;fillColor=none;top=0;left=0;bottom=0;right=0;overflow=hidden;pointerEvents=1;" vertex="1" parent="FEjov3_fEQZX0-ExVcWr-71">
          <mxGeometry x="410" width="162" height="30" as="geometry" />
        </mxCell>
      </root>
    </mxGraphModel>
  </diagram>
</mxfile>
